<svg enable-background="new 0 0 32 32" viewBox="0 0 32 32" xmlns="http://www.w3.org/2000/svg"><path d="m19.49 3c0 .276-.224.5-.5.5s-.5-.224-.5-.5.224-.5.5-.5.5.224.5.5zm-2.5-.5c-.276 0-.5.224-.5.5s.224.5.5.5.5-.224.5-.5-.224-.5-.5-.5zm-2 0c-.276 0-.5.224-.5.5s.224.5.5.5.5-.224.5-.5-.224-.5-.5-.5zm16.37 28.5h-.72c0-4.341-2.941-8.161-7.153-9.29-.144-.038-.248-.159-.265-.307-.018-.146.058-.289.188-.358 1.678-.898 2.72-2.636 2.72-4.534 0-2.84-2.306-5.151-5.14-5.151-2.835 0-5.141 2.311-5.141 5.151 0 1.898 1.042 3.636 2.72 4.534.13.069.205.212.188.358-.017.147-.121.269-.265.307-4.199 1.125-7.131 4.945-7.131 9.29h-.72c0-4.402 2.801-8.304 6.903-9.75-.359-.261-.686-.561-.973-.89h-15.571c-.199 0-.36-.161-.36-.36v-19c0-.199.161-.36.36-.36h20c.199 0 .36.161.36.36v9.652c3.059.192 5.489 2.747 5.489 5.859 0 1.893-.909 3.645-2.415 4.739 4.116 1.448 6.926 5.35 6.926 9.75zm-30-11.36h14.673c-.582-.919-.905-1.999-.905-3.129 0-3.12 2.442-5.679 5.511-5.86v-5.291h-19.279zm0-15h19.28v-3.28h-19.28zm9.63 9.72h-8v-.72h8zm0-3h-8v-.72h8zm-.001-3h-8v-.72h8z"/><path d="m0 0h32v32h-32z" fill="none"/></svg>