<svg xmlns="http://www.w3.org/2000/svg" xmlns:xlink="http://www.w3.org/1999/xlink" version="1.1" width="50" height="50" viewBox="0 0 50 50" xml:space="preserve">
<desc>Created with Fabric.js 3.5.0</desc>
<defs>
</defs>
<rect x="0" y="0" width="100%" height="100%" fill="rgba(255,255,255,0)"/>
<g transform="matrix(0.014 0 0 0.014 25 25)" id="964665">
<g style="" vector-effect="non-scaling-stroke">
		<g transform="matrix(57.3394 0 0 57.3394 312.4992 -0.0011)">
<path style="stroke: none; stroke-width: 1; stroke-dasharray: none; stroke-linecap: butt; stroke-dashoffset: 0; stroke-linejoin: miter; stroke-miterlimit: 4; is-custom-font: none; font-file-url: none; fill: rgb(89,82,157); fill-rule: nonzero; opacity: 1;" transform=" translate(-30.95, -25.5)" d="m 47.3 3.7 v 21.8 l -10.9 10.9 l -10.9 10.9 l -10.9 -10.9 l 10.9 -10.9 v 0.1 v -0.1 z" stroke-linecap="round"/>
</g>
		<g transform="matrix(57.3394 0 0 57.3394 937.4997 624.9995)">
<path style="stroke: none; stroke-width: 1; stroke-dasharray: none; stroke-linecap: butt; stroke-dashoffset: 0; stroke-linejoin: miter; stroke-miterlimit: 4; is-custom-font: none; font-file-url: none; fill: rgb(82,113,180); fill-rule: nonzero; opacity: 1;" transform=" translate(-41.85, -36.4)" d="m 47.3 25.5 v 21.8 l -10.9 -10.9 z" stroke-linecap="round"/>
</g>
		<g transform="matrix(57.3394 0 0 57.3394 -625.0005 -0.0011)">
<path style="stroke: none; stroke-width: 1; stroke-dasharray: none; stroke-linecap: butt; stroke-dashoffset: 0; stroke-linejoin: miter; stroke-miterlimit: 4; is-custom-font: none; font-file-url: none; fill: rgb(187,75,150); fill-rule: nonzero; opacity: 1;" transform=" translate(-14.6, -25.5)" d="m 25.5 25.5 l -10.9 10.9 l -10.9 10.9 v -43.6 l 10.9 10.9 z" stroke-linecap="round"/>
</g>
</g>
</g>
<g transform="matrix(0.014 0 0 0.014 25 25)" id="550193">
<g style="" vector-effect="non-scaling-stroke">
		<g transform="matrix(57.3394 0 0 57.3394 312.4992 -0.0011)">
<path style="stroke: none; stroke-width: 1; stroke-dasharray: none; stroke-linecap: butt; stroke-dashoffset: 0; stroke-linejoin: miter; stroke-miterlimit: 4; is-custom-font: none; font-file-url: none; fill: rgb(89,82,157); fill-rule: nonzero; opacity: 1;" transform=" translate(-30.95, -25.5)" d="m 47.3 3.7 v 21.8 l -10.9 10.9 l -10.9 10.9 l -10.9 -10.9 l 10.9 -10.9 v 0.1 v -0.1 z" stroke-linecap="round"/>
</g>
		<g transform="matrix(57.3394 0 0 57.3394 937.4997 624.9995)">
<path style="stroke: none; stroke-width: 1; stroke-dasharray: none; stroke-linecap: butt; stroke-dashoffset: 0; stroke-linejoin: miter; stroke-miterlimit: 4; is-custom-font: none; font-file-url: none; fill: rgb(82,113,180); fill-rule: nonzero; opacity: 1;" transform=" translate(-41.85, -36.4)" d="m 47.3 25.5 v 21.8 l -10.9 -10.9 z" stroke-linecap="round"/>
</g>
		<g transform="matrix(57.3394 0 0 57.3394 -625.0005 -0.0011)">
<path style="stroke: none; stroke-width: 1; stroke-dasharray: none; stroke-linecap: butt; stroke-dashoffset: 0; stroke-linejoin: miter; stroke-miterlimit: 4; is-custom-font: none; font-file-url: none; fill: rgb(187,75,150); fill-rule: nonzero; opacity: 1;" transform=" translate(-14.6, -25.5)" d="m 25.5 25.5 l -10.9 10.9 l -10.9 10.9 v -43.6 l 10.9 10.9 z" stroke-linecap="round"/>
</g>
</g>
</g>
</svg>