<svg xmlns="http://www.w3.org/2000/svg" xmlns:xlink="http://www.w3.org/1999/xlink" version="1.1" width="256" height="256" viewBox="0 0 256 256" xml:space="preserve">

<defs>
</defs>
<g style="stroke: none; stroke-width: 0; stroke-dasharray: none; stroke-linecap: butt; stroke-linejoin: miter; stroke-miterlimit: 10; fill: none; fill-rule: nonzero; opacity: 1;" transform="translate(1.4065934065934016 1.4065934065934016) scale(2.81 2.81)" >
	<path d="M 86.49 87.906 H 3.51 c -1.935 0 -3.51 -1.574 -3.51 -3.51 V 5.604 c 0 -1.935 1.575 -3.51 3.51 -3.51 h 82.98 c 1.936 0 3.51 1.575 3.51 3.51 v 78.793 C 90 86.332 88.426 87.906 86.49 87.906 z M 3.51 4.094 C 2.677 4.094 2 4.771 2 5.604 v 78.793 c 0 0.832 0.677 1.51 1.51 1.51 h 82.98 c 0.832 0 1.51 -0.678 1.51 -1.51 V 5.604 c 0 -0.833 -0.678 -1.51 -1.51 -1.51 H 3.51 z" style="stroke: none; stroke-width: 1; stroke-dasharray: none; stroke-linecap: butt; stroke-linejoin: miter; stroke-miterlimit: 10; fill: rgb(0,0,0); fill-rule: nonzero; opacity: 1;" transform=" matrix(1 0 0 1 0 0) " stroke-linecap="round" />
	<path d="M 89 18.686 H 1 c -0.552 0 -1 -0.448 -1 -1 V 5.604 c 0 -1.935 1.575 -3.51 3.51 -3.51 h 82.98 c 1.936 0 3.51 1.575 3.51 3.51 v 12.082 C 90 18.238 89.553 18.686 89 18.686 z M 2 16.686 h 86 V 5.604 c 0 -0.833 -0.678 -1.51 -1.51 -1.51 H 3.51 C 2.677 4.094 2 4.771 2 5.604 V 16.686 z" style="stroke: none; stroke-width: 1; stroke-dasharray: none; stroke-linecap: butt; stroke-linejoin: miter; stroke-miterlimit: 10; fill: rgb(0,0,0); fill-rule: nonzero; opacity: 1;" transform=" matrix(1 0 0 1 0 0) " stroke-linecap="round" />
	<path d="M 78.861 43.269 H 11.139 c -2.288 0 -4.148 -1.861 -4.148 -4.148 v -9.163 c 0 -2.288 1.861 -4.148 4.148 -4.148 h 67.723 c 2.287 0 4.148 1.861 4.148 4.148 v 9.163 C 83.01 41.408 81.148 43.269 78.861 43.269 z M 11.139 27.809 c -1.185 0 -2.148 0.964 -2.148 2.148 v 9.163 c 0 1.185 0.964 2.148 2.148 2.148 h 67.723 c 1.185 0 2.148 -0.963 2.148 -2.148 v -9.163 c 0 -1.185 -0.964 -2.148 -2.148 -2.148 H 11.139 z" style="stroke: none; stroke-width: 1; stroke-dasharray: none; stroke-linecap: butt; stroke-linejoin: miter; stroke-miterlimit: 10; fill: rgb(0,0,0); fill-rule: nonzero; opacity: 1;" transform=" matrix(1 0 0 1 0 0) " stroke-linecap="round" />
	<path d="M 78.861 43.269 H 61.938 c -0.553 0 -1 -0.448 -1 -1 V 26.809 c 0 -0.552 0.447 -1 1 -1 h 16.923 c 2.287 0 4.148 1.861 4.148 4.148 v 9.163 C 83.01 41.408 81.148 43.269 78.861 43.269 z M 62.938 41.269 h 15.923 c 1.185 0 2.148 -0.963 2.148 -2.148 v -9.163 c 0 -1.185 -0.964 -2.148 -2.148 -2.148 H 62.938 V 41.269 z" style="stroke: none; stroke-width: 1; stroke-dasharray: none; stroke-linecap: butt; stroke-linejoin: miter; stroke-miterlimit: 10; fill: rgb(0,0,0); fill-rule: nonzero; opacity: 1;" transform=" matrix(1 0 0 1 0 0) " stroke-linecap="round" />
	<path d="M 72.8 37.387 c -0.981 0 -1.904 -0.382 -2.598 -1.076 c -1.432 -1.433 -1.432 -3.763 0 -5.196 c 1.387 -1.388 3.808 -1.389 5.196 0 c 1.432 1.433 1.432 3.763 0 5.196 C 74.704 37.005 73.781 37.387 72.8 37.387 z M 72.8 32.039 c -0.447 0 -0.867 0.174 -1.184 0.49 c -0.652 0.653 -0.652 1.715 0 2.368 c 0.633 0.633 1.735 0.632 2.368 0 c 0.652 -0.653 0.652 -1.715 0 -2.368 C 73.668 32.213 73.247 32.039 72.8 32.039 z" style="stroke: none; stroke-width: 1; stroke-dasharray: none; stroke-linecap: butt; stroke-linejoin: miter; stroke-miterlimit: 10; fill: rgb(0,0,0); fill-rule: nonzero; opacity: 1;" transform=" matrix(1 0 0 1 0 0) " stroke-linecap="round" />
	<path d="M 68.475 39.039 c -0.256 0 -0.512 -0.098 -0.707 -0.293 c -0.391 -0.39 -0.391 -1.023 0 -1.414 l 2.435 -2.435 c 0.391 -0.391 1.023 -0.391 1.414 0 c 0.391 0.39 0.391 1.023 0 1.414 l -2.435 2.435 C 68.986 38.941 68.73 39.039 68.475 39.039 z" style="stroke: none; stroke-width: 1; stroke-dasharray: none; stroke-linecap: butt; stroke-linejoin: miter; stroke-miterlimit: 10; fill: rgb(0,0,0); fill-rule: nonzero; opacity: 1;" transform=" matrix(1 0 0 1 0 0) " stroke-linecap="round" />
	<path d="M 43.365 80.269 H 11.139 c -2.288 0 -4.148 -1.861 -4.148 -4.148 V 53.958 c 0 -2.287 1.861 -4.148 4.148 -4.148 h 32.226 c 2.287 0 4.148 1.861 4.148 4.148 V 76.12 C 47.513 78.407 45.652 80.269 43.365 80.269 z M 11.139 51.81 c -1.185 0 -2.148 0.964 -2.148 2.148 V 76.12 c 0 1.185 0.964 2.148 2.148 2.148 h 32.226 c 1.185 0 2.148 -0.964 2.148 -2.148 V 53.958 c 0 -1.185 -0.963 -2.148 -2.148 -2.148 H 11.139 z" style="stroke: none; stroke-width: 1; stroke-dasharray: none; stroke-linecap: butt; stroke-linejoin: miter; stroke-miterlimit: 10; fill: rgb(0,0,0); fill-rule: nonzero; opacity: 1;" transform=" matrix(1 0 0 1 0 0) " stroke-linecap="round" />
	<path d="M 78.861 64.269 H 57.777 c -2.287 0 -4.148 -1.861 -4.148 -4.148 v -6.162 c 0 -2.287 1.861 -4.148 4.148 -4.148 h 21.084 c 2.287 0 4.148 1.861 4.148 4.148 v 6.162 C 83.01 62.407 81.148 64.269 78.861 64.269 z M 57.777 51.81 c -1.185 0 -2.148 0.964 -2.148 2.148 v 6.162 c 0 1.185 0.964 2.148 2.148 2.148 h 21.084 c 1.185 0 2.148 -0.964 2.148 -2.148 v -6.162 c 0 -1.185 -0.964 -2.148 -2.148 -2.148 H 57.777 z" style="stroke: none; stroke-width: 1; stroke-dasharray: none; stroke-linecap: butt; stroke-linejoin: miter; stroke-miterlimit: 10; fill: rgb(0,0,0); fill-rule: nonzero; opacity: 1;" transform=" matrix(1 0 0 1 0 0) " stroke-linecap="round" />
	<path d="M 33.32 71.802 c -0.552 0 -1 -0.447 -1 -1 v -4.491 c 0 -0.553 0.448 -1 1 -1 h 4.491 c 0.552 0 1 0.447 1 1 s -0.448 1 -1 1 H 34.32 v 3.491 C 34.32 71.354 33.872 71.802 33.32 71.802 z" style="stroke: none; stroke-width: 1; stroke-dasharray: none; stroke-linecap: butt; stroke-linejoin: miter; stroke-miterlimit: 10; fill: rgb(0,0,0); fill-rule: nonzero; opacity: 1;" transform=" matrix(1 0 0 1 0 0) " stroke-linecap="round" />
	<path d="M 40.108 74.1 c -0.256 0 -0.512 -0.098 -0.707 -0.293 l -6.789 -6.789 c -0.391 -0.391 -0.391 -1.023 0 -1.414 s 1.023 -0.391 1.414 0 l 6.789 6.789 c 0.391 0.391 0.391 1.023 0 1.414 C 40.62 74.002 40.364 74.1 40.108 74.1 z" style="stroke: none; stroke-width: 1; stroke-dasharray: none; stroke-linecap: butt; stroke-linejoin: miter; stroke-miterlimit: 10; fill: rgb(0,0,0); fill-rule: nonzero; opacity: 1;" transform=" matrix(1 0 0 1 0 0) " stroke-linecap="round" />
	<path d="M 82.01 80.269 H 54.629 c -0.553 0 -1 -0.447 -1 -1 s 0.447 -1 1 -1 H 82.01 c 0.553 0 1 0.447 1 1 S 82.563 80.269 82.01 80.269 z" style="stroke: none; stroke-width: 1; stroke-dasharray: none; stroke-linecap: butt; stroke-linejoin: miter; stroke-miterlimit: 10; fill: rgb(0,0,0); fill-rule: nonzero; opacity: 1;" transform=" matrix(1 0 0 1 0 0) " stroke-linecap="round" />
	<path d="M 82.01 72.269 H 54.629 c -0.553 0 -1 -0.447 -1 -1 s 0.447 -1 1 -1 H 82.01 c 0.553 0 1 0.447 1 1 S 82.563 72.269 82.01 72.269 z" style="stroke: none; stroke-width: 1; stroke-dasharray: none; stroke-linecap: butt; stroke-linejoin: miter; stroke-miterlimit: 10; fill: rgb(0,0,0); fill-rule: nonzero; opacity: 1;" transform=" matrix(1 0 0 1 0 0) " stroke-linecap="round" />
	<path d="M 81.509 11.39 h -44.73 c -0.552 0 -1 -0.448 -1 -1 s 0.448 -1 1 -1 h 44.73 c 0.553 0 1 0.448 1 1 S 82.062 11.39 81.509 11.39 z" style="stroke: none; stroke-width: 1; stroke-dasharray: none; stroke-linecap: butt; stroke-linejoin: miter; stroke-miterlimit: 10; fill: rgb(0,0,0); fill-rule: nonzero; opacity: 1;" transform=" matrix(1 0 0 1 0 0) " stroke-linecap="round" />
	<path d="M 30.984 11.39 h -5.108 c -0.552 0 -1 -0.448 -1 -1 s 0.448 -1 1 -1 h 5.108 c 0.552 0 1 0.448 1 1 S 31.536 11.39 30.984 11.39 z" style="stroke: none; stroke-width: 1; stroke-dasharray: none; stroke-linecap: butt; stroke-linejoin: miter; stroke-miterlimit: 10; fill: rgb(0,0,0); fill-rule: nonzero; opacity: 1;" transform=" matrix(1 0 0 1 0 0) " stroke-linecap="round" />
	<path d="M 21.671 11.39 h -5.108 c -0.552 0 -1 -0.448 -1 -1 s 0.448 -1 1 -1 h 5.108 c 0.552 0 1 0.448 1 1 S 22.224 11.39 21.671 11.39 z" style="stroke: none; stroke-width: 1; stroke-dasharray: none; stroke-linecap: butt; stroke-linejoin: miter; stroke-miterlimit: 10; fill: rgb(0,0,0); fill-rule: nonzero; opacity: 1;" transform=" matrix(1 0 0 1 0 0) " stroke-linecap="round" />
	<path d="M 12.359 11.39 H 7.251 c -0.552 0 -1 -0.448 -1 -1 s 0.448 -1 1 -1 h 5.108 c 0.552 0 1 0.448 1 1 S 12.912 11.39 12.359 11.39 z" style="stroke: none; stroke-width: 1; stroke-dasharray: none; stroke-linecap: butt; stroke-linejoin: miter; stroke-miterlimit: 10; fill: rgb(0,0,0); fill-rule: nonzero; opacity: 1;" transform=" matrix(1 0 0 1 0 0) " stroke-linecap="round" />
</g>
</svg>