<svg xmlns="http://www.w3.org/2000/svg" xmlns:xlink="http://www.w3.org/1999/xlink" version="1.1" width="50" height="50" viewBox="0 0 50 50" xml:space="preserve">
<desc>Created with Fabric.js 3.5.0</desc>
<defs>
</defs>
<rect x="0" y="0" width="100%" height="100%" fill="rgba(255,255,255,0)"/>
<g transform="matrix(0.0437 0 0 0.0437 103.6467 50.3133)" id="691132">
<g style="" vector-effect="non-scaling-stroke">
		<g transform="matrix(3.125 0 0 3.125 -250 -116.6833)">
<polygon style="stroke: none; stroke-width: 1; stroke-dasharray: none; stroke-linecap: butt; stroke-dashoffset: 0; stroke-linejoin: miter; stroke-miterlimit: 4; is-custom-font: none; font-file-url: none; fill: rgb(0,176,255); fill-rule: nonzero; opacity: 1;" points="-48,46.1867 -48,-64.6613 48,-9.2373 48,27.712 -16,-9.2373 -16,64.6613 "/>
</g>
		<g transform="matrix(3.125 0 0 3.125 50 -87.8167)">
<polygon style="stroke: none; stroke-width: 1; stroke-dasharray: none; stroke-linecap: butt; stroke-dashoffset: 0; stroke-linejoin: miter; stroke-miterlimit: 4; is-custom-font: none; font-file-url: none; fill: rgb(0,129,203); fill-rule: nonzero; opacity: 1;" points="-48,-18.4747 48,-73.8987 48,36.9493 -16,73.8987 -48,55.424 16,18.4747 16,-18.4747 -48,18.4747 "/>
</g>
		<g transform="matrix(3.125 0 0 3.125 0 200.85)">
<polygon style="stroke: none; stroke-width: 1; stroke-dasharray: none; stroke-linecap: butt; stroke-dashoffset: 0; stroke-linejoin: miter; stroke-miterlimit: 4; is-custom-font: none; font-file-url: none; fill: rgb(0,176,255); fill-rule: nonzero; opacity: 1;" points="-32,-36.9493 -32,0 32,36.9493 32,0 "/>
</g>
		<g transform="matrix(3.125 0 0 3.125 250 -1.2167)">
<path style="stroke: none; stroke-width: 1; stroke-dasharray: none; stroke-linecap: butt; stroke-dashoffset: 0; stroke-linejoin: miter; stroke-miterlimit: 4; is-custom-font: none; font-file-url: none; fill: rgb(0,129,203); fill-rule: nonzero; opacity: 1;" transform=" translate(-208, -101.6107)" d="M 160 203.221333 L 256 147.797333 L 256 73.8986667 L 224 92.3733333 L 224 129.322667 L 160 166.272 L 160 203.221333 Z M 224 55.424 L 224 18.4746667 L 256 5.68434189e-14 L 256 36.9493333 L 224 55.424 Z" stroke-linecap="round"/>
</g>
</g>
</g>
<g transform="matrix(0.0437 0 0 0.0437 126.3133 -17.6867)" id="661444">
<g style="" vector-effect="non-scaling-stroke">
		<g transform="matrix(3.125 0 0 3.125 -250 -116.6833)">
<polygon style="stroke: none; stroke-width: 1; stroke-dasharray: none; stroke-linecap: butt; stroke-dashoffset: 0; stroke-linejoin: miter; stroke-miterlimit: 4; is-custom-font: none; font-file-url: none; fill: rgb(0,176,255); fill-rule: nonzero; opacity: 1;" points="-48,46.1867 -48,-64.6613 48,-9.2373 48,27.712 -16,-9.2373 -16,64.6613 "/>
</g>
		<g transform="matrix(3.125 0 0 3.125 50 -87.8167)">
<polygon style="stroke: none; stroke-width: 1; stroke-dasharray: none; stroke-linecap: butt; stroke-dashoffset: 0; stroke-linejoin: miter; stroke-miterlimit: 4; is-custom-font: none; font-file-url: none; fill: rgb(0,129,203); fill-rule: nonzero; opacity: 1;" points="-48,-18.4747 48,-73.8987 48,36.9493 -16,73.8987 -48,55.424 16,18.4747 16,-18.4747 -48,18.4747 "/>
</g>
		<g transform="matrix(3.125 0 0 3.125 0 200.85)">
<polygon style="stroke: none; stroke-width: 1; stroke-dasharray: none; stroke-linecap: butt; stroke-dashoffset: 0; stroke-linejoin: miter; stroke-miterlimit: 4; is-custom-font: none; font-file-url: none; fill: rgb(0,176,255); fill-rule: nonzero; opacity: 1;" points="-32,-36.9493 -32,0 32,36.9493 32,0 "/>
</g>
		<g transform="matrix(3.125 0 0 3.125 250 -1.2167)">
<path style="stroke: none; stroke-width: 1; stroke-dasharray: none; stroke-linecap: butt; stroke-dashoffset: 0; stroke-linejoin: miter; stroke-miterlimit: 4; is-custom-font: none; font-file-url: none; fill: rgb(0,129,203); fill-rule: nonzero; opacity: 1;" transform=" translate(-208, -101.6107)" d="M 160 203.221333 L 256 147.797333 L 256 73.8986667 L 224 92.3733333 L 224 129.322667 L 160 166.272 L 160 203.221333 Z M 224 55.424 L 224 18.4746667 L 256 5.68434189e-14 L 256 36.9493333 L 224 55.424 Z" stroke-linecap="round"/>
</g>
</g>
</g>
<g transform="matrix(0.0437 0 0 0.0437 24.98 24.98)" id="863014">
<g style="" vector-effect="non-scaling-stroke">
		<g transform="matrix(3.125 0 0 3.125 -250 -116.6833)">
<polygon style="stroke: none; stroke-width: 1; stroke-dasharray: none; stroke-linecap: butt; stroke-dashoffset: 0; stroke-linejoin: miter; stroke-miterlimit: 4; is-custom-font: none; font-file-url: none; fill: rgb(0,176,255); fill-rule: nonzero; opacity: 1;" points="-48,46.1867 -48,-64.6613 48,-9.2373 48,27.712 -16,-9.2373 -16,64.6613 "/>
</g>
		<g transform="matrix(3.125 0 0 3.125 50 -87.8167)">
<polygon style="stroke: none; stroke-width: 1; stroke-dasharray: none; stroke-linecap: butt; stroke-dashoffset: 0; stroke-linejoin: miter; stroke-miterlimit: 4; is-custom-font: none; font-file-url: none; fill: rgb(0,129,203); fill-rule: nonzero; opacity: 1;" points="-48,-18.4747 48,-73.8987 48,36.9493 -16,73.8987 -48,55.424 16,18.4747 16,-18.4747 -48,18.4747 "/>
</g>
		<g transform="matrix(3.125 0 0 3.125 0 200.85)">
<polygon style="stroke: none; stroke-width: 1; stroke-dasharray: none; stroke-linecap: butt; stroke-dashoffset: 0; stroke-linejoin: miter; stroke-miterlimit: 4; is-custom-font: none; font-file-url: none; fill: rgb(0,176,255); fill-rule: nonzero; opacity: 1;" points="-32,-36.9493 -32,0 32,36.9493 32,0 "/>
</g>
		<g transform="matrix(3.125 0 0 3.125 250 -1.2167)">
<path style="stroke: none; stroke-width: 1; stroke-dasharray: none; stroke-linecap: butt; stroke-dashoffset: 0; stroke-linejoin: miter; stroke-miterlimit: 4; is-custom-font: none; font-file-url: none; fill: rgb(0,129,203); fill-rule: nonzero; opacity: 1;" transform=" translate(-208, -101.6107)" d="M 160 203.221333 L 256 147.797333 L 256 73.8986667 L 224 92.3733333 L 224 129.322667 L 160 166.272 L 160 203.221333 Z M 224 55.424 L 224 18.4746667 L 256 5.68434189e-14 L 256 36.9493333 L 224 55.424 Z" stroke-linecap="round"/>
</g>
</g>
</g>
<g transform="matrix(0.0437 0 0 0.0437 24.98 24.98)" id="806858">
<g style="" vector-effect="non-scaling-stroke">
		<g transform="matrix(3.125 0 0 3.125 -250 -116.6833)">
<polygon style="stroke: none; stroke-width: 1; stroke-dasharray: none; stroke-linecap: butt; stroke-dashoffset: 0; stroke-linejoin: miter; stroke-miterlimit: 4; is-custom-font: none; font-file-url: none; fill: rgb(0,176,255); fill-rule: nonzero; opacity: 1;" points="-48,46.1867 -48,-64.6613 48,-9.2373 48,27.712 -16,-9.2373 -16,64.6613 "/>
</g>
		<g transform="matrix(3.125 0 0 3.125 50 -87.8167)">
<polygon style="stroke: none; stroke-width: 1; stroke-dasharray: none; stroke-linecap: butt; stroke-dashoffset: 0; stroke-linejoin: miter; stroke-miterlimit: 4; is-custom-font: none; font-file-url: none; fill: rgb(0,129,203); fill-rule: nonzero; opacity: 1;" points="-48,-18.4747 48,-73.8987 48,36.9493 -16,73.8987 -48,55.424 16,18.4747 16,-18.4747 -48,18.4747 "/>
</g>
		<g transform="matrix(3.125 0 0 3.125 0 200.85)">
<polygon style="stroke: none; stroke-width: 1; stroke-dasharray: none; stroke-linecap: butt; stroke-dashoffset: 0; stroke-linejoin: miter; stroke-miterlimit: 4; is-custom-font: none; font-file-url: none; fill: rgb(0,176,255); fill-rule: nonzero; opacity: 1;" points="-32,-36.9493 -32,0 32,36.9493 32,0 "/>
</g>
		<g transform="matrix(3.125 0 0 3.125 250 -1.2167)">
<path style="stroke: none; stroke-width: 1; stroke-dasharray: none; stroke-linecap: butt; stroke-dashoffset: 0; stroke-linejoin: miter; stroke-miterlimit: 4; is-custom-font: none; font-file-url: none; fill: rgb(0,129,203); fill-rule: nonzero; opacity: 1;" transform=" translate(-208, -101.6107)" d="M 160 203.221333 L 256 147.797333 L 256 73.8986667 L 224 92.3733333 L 224 129.322667 L 160 166.272 L 160 203.221333 Z M 224 55.424 L 224 18.4746667 L 256 5.68434189e-14 L 256 36.9493333 L 224 55.424 Z" stroke-linecap="round"/>
</g>
</g>
</g>
</svg>