<svg height="73" viewBox="0 0 73 73" width="73" xmlns="http://www.w3.org/2000/svg"><g fill="none" fill-rule="evenodd"><rect fill="#fff" fill-rule="nonzero" height="71" rx="14" stroke="#313b5e" stroke-width="2" width="71" x="1" y="1"/><g transform="translate(18 13)"><path d="m35.5217391 16.5217391-12.3913043-12.39130432h-19.00000002v41.30434782h31.39130432z" fill="#edeada" fill-rule="nonzero"/><circle cx="21.026391" cy="30.939435" fill="#fff" fill-rule="nonzero" r="8.94487" stroke="#7383bf" stroke-linecap="round" stroke-width="2"/><path d="m27.4624348 37.3754783 10.5375652 10.5375652" stroke="#7383bf" stroke-linecap="round" stroke-width="2"/><g fill-rule="nonzero"><path d="m21.1684783 28.9130435h-4.9565218c-.4568261 0-.8260869-.3692609-.8260869-.826087s.3692608-.8260869.8260869-.8260869h4.9565218c.456826 0 .8260869.3692608.8260869.8260869s-.3692609.826087-.8260869.826087z" fill="#cec9ae"/><path d="m26.125 33.8695652h-9.9130435c-.4568261 0-.8260869-.3692609-.8260869-.8260869 0-.4568261.3692608-.826087.8260869-.826087h9.9130435c.4568261 0 .826087.3692609.826087.826087 0 .456826-.3692609.8260869-.826087.8260869z" fill="#cec9ae"/><path d="m4.13043478 4.13043478h19.00000002l8.2608695 8.26086952v-12.3913043h-31.3913043v41.3043478h4.13043478z" fill="#e2dbbf"/><path d="m35.2838261 16.5217391h-12.1533913v-12.15339127c0-.08756522.1065652-.13217392.1685217-.06939131l12.0542609 12.05426088c.0619565.0619565.0181739.1685217-.0693913.1685217z" fill="#cec9ae"/></g></g></g></svg>