<svg xmlns="http://www.w3.org/2000/svg" xmlns:xlink="http://www.w3.org/1999/xlink" version="1.1" width="256" height="256" viewBox="0 0 256 256" xml:space="preserve">

<defs>
</defs>
<g style="stroke: none; stroke-width: 0; stroke-dasharray: none; stroke-linecap: butt; stroke-linejoin: miter; stroke-miterlimit: 10; fill: none; fill-rule: nonzero; opacity: 1;" transform="translate(1.4065934065934016 1.4065934065934016) scale(2.81 2.81)" >
	<path d="M 86.49 78.406 H 3.51 c -1.935 0 -3.51 -1.574 -3.51 -3.51 V 15.104 c 0 -1.935 1.575 -3.51 3.51 -3.51 h 82.98 c 1.936 0 3.51 1.575 3.51 3.51 v 59.793 C 90 76.832 88.426 78.406 86.49 78.406 z M 3.51 13.594 c -0.833 0 -1.51 0.677 -1.51 1.51 v 59.793 c 0 0.832 0.677 1.51 1.51 1.51 h 82.98 c 0.832 0 1.51 -0.678 1.51 -1.51 V 15.104 c 0 -0.833 -0.678 -1.51 -1.51 -1.51 H 3.51 z" style="stroke: none; stroke-width: 1; stroke-dasharray: none; stroke-linecap: butt; stroke-linejoin: miter; stroke-miterlimit: 10; fill: rgb(0,0,0); fill-rule: nonzero; opacity: 1;" transform=" matrix(1 0 0 1 0 0) " stroke-linecap="round" />
	<path d="M 89 26.186 H 1 c -0.552 0 -1 -0.448 -1 -1 V 15.104 c 0 -1.935 1.575 -3.51 3.51 -3.51 h 82.98 c 1.936 0 3.51 1.575 3.51 3.51 v 10.082 C 90 25.738 89.553 26.186 89 26.186 z M 2 24.186 h 86 v -9.082 c 0 -0.833 -0.678 -1.51 -1.51 -1.51 H 3.51 c -0.833 0 -1.51 0.677 -1.51 1.51 V 24.186 z" style="stroke: none; stroke-width: 1; stroke-dasharray: none; stroke-linecap: butt; stroke-linejoin: miter; stroke-miterlimit: 10; fill: rgb(0,0,0); fill-rule: nonzero; opacity: 1;" transform=" matrix(1 0 0 1 0 0) " stroke-linecap="round" />
	<path d="M 65.418 19.89 H 7.99 c -0.552 0 -1 -0.448 -1 -1 s 0.448 -1 1 -1 h 57.428 c 0.553 0 1 0.448 1 1 S 65.971 19.89 65.418 19.89 z" style="stroke: none; stroke-width: 1; stroke-dasharray: none; stroke-linecap: butt; stroke-linejoin: miter; stroke-miterlimit: 10; fill: rgb(0,0,0); fill-rule: nonzero; opacity: 1;" transform=" matrix(1 0 0 1 0 0) " stroke-linecap="round" />
	<path d="M 82.01 19.89 h -8.081 c -0.553 0 -1 -0.448 -1 -1 s 0.447 -1 1 -1 h 8.081 c 0.553 0 1 0.448 1 1 S 82.563 19.89 82.01 19.89 z" style="stroke: none; stroke-width: 1; stroke-dasharray: none; stroke-linecap: butt; stroke-linejoin: miter; stroke-miterlimit: 10; fill: rgb(0,0,0); fill-rule: nonzero; opacity: 1;" transform=" matrix(1 0 0 1 0 0) " stroke-linecap="round" />
	<path d="M 31.855 63.456 h -3.71 c -1.889 0 -3.425 -1.536 -3.425 -3.425 c 0 -0.535 -0.296 -1.02 -0.774 -1.265 c -0.381 -0.196 -0.751 -0.41 -1.112 -0.643 c -0.45 -0.29 -1.016 -0.305 -1.479 -0.036 c -0.793 0.457 -1.716 0.579 -2.599 0.343 c -0.884 -0.236 -1.623 -0.803 -2.081 -1.596 l -1.854 -3.213 c -0.457 -0.792 -0.579 -1.715 -0.342 -2.599 c 0.237 -0.885 0.804 -1.623 1.597 -2.08 c 0.462 -0.267 0.733 -0.766 0.708 -1.3 c -0.021 -0.428 -0.021 -0.857 0 -1.284 c 0.026 -0.535 -0.245 -1.034 -0.708 -1.301 c -1.636 -0.945 -2.199 -3.044 -1.255 -4.68 l 1.854 -3.212 c 0.458 -0.792 1.197 -1.359 2.08 -1.597 c 0.886 -0.236 1.808 -0.115 2.599 0.343 c 0.462 0.266 1.044 0.245 1.516 -0.058 c 0.169 -0.108 0.341 -0.213 0.517 -0.314 c 0.171 -0.099 0.347 -0.195 0.525 -0.287 c 0.498 -0.258 0.808 -0.75 0.808 -1.284 c 0 -1.889 1.536 -3.425 3.425 -3.425 h 3.71 c 1.889 0 3.425 1.537 3.425 3.425 c 0 0.535 0.297 1.02 0.775 1.266 c 0.379 0.194 0.75 0.409 1.11 0.641 c 0.451 0.29 1.018 0.305 1.479 0.037 c 0.793 -0.458 1.715 -0.579 2.6 -0.343 c 0.884 0.237 1.623 0.804 2.081 1.596 l 1.854 3.212 c 0.457 0.792 0.579 1.715 0.342 2.599 s -0.804 1.623 -1.596 2.08 c -0.462 0.267 -0.734 0.765 -0.708 1.299 c 0.021 0.428 0.021 0.856 0 1.284 c -0.026 0.535 0.246 1.034 0.709 1.303 l -0.501 0.865 l 0.501 -0.866 c 1.636 0.944 2.198 3.044 1.254 4.68 l -1.854 3.212 c -0.458 0.792 -1.196 1.359 -2.08 1.596 c -0.885 0.237 -1.808 0.115 -2.599 -0.342 c -0.462 -0.268 -1.043 -0.246 -1.516 0.059 c -0.17 0.108 -0.34 0.213 -0.515 0.313 c -0.174 0.101 -0.349 0.195 -0.525 0.287 c -0.5 0.258 -0.81 0.75 -0.81 1.285 C 35.28 61.92 33.744 63.456 31.855 63.456 z M 22.065 55.896 c 0.643 0 1.285 0.183 1.851 0.547 c 0.307 0.197 0.622 0.38 0.944 0.545 c 1.147 0.589 1.86 1.755 1.86 3.043 c 0 0.786 0.639 1.426 1.425 1.426 h 3.71 c 0.786 0 1.425 -0.64 1.425 -1.425 c 0 -1.286 0.724 -2.459 1.89 -3.062 c 0.149 -0.077 0.298 -0.158 0.447 -0.243 c 0.148 -0.086 0.293 -0.175 0.435 -0.266 c 1.102 -0.706 2.479 -0.748 3.594 -0.105 c 0.329 0.189 0.711 0.242 1.082 0.143 c 0.368 -0.099 0.675 -0.334 0.865 -0.664 l 1.854 -3.212 c 0.393 -0.681 0.159 -1.555 -0.522 -1.947 c 0 0 0 0 0 0 c -1.114 -0.645 -1.768 -1.845 -1.706 -3.132 c 0.018 -0.363 0.018 -0.726 0 -1.09 c -0.062 -1.287 0.592 -2.485 1.706 -3.128 c 0.681 -0.393 0.916 -1.267 0.522 -1.947 l -1.854 -3.212 c -0.19 -0.33 -0.498 -0.566 -0.865 -0.665 c -0.367 -0.097 -0.751 -0.048 -1.082 0.143 c -1.113 0.642 -2.478 0.611 -3.562 -0.086 c -0.306 -0.196 -0.621 -0.378 -0.943 -0.544 c -1.148 -0.591 -1.861 -1.757 -1.861 -3.043 c 0 -0.787 -0.639 -1.426 -1.425 -1.426 h -3.71 c -0.786 0 -1.425 0.639 -1.425 1.425 c 0 1.285 -0.724 2.458 -1.89 3.061 c -0.15 0.078 -0.298 0.158 -0.445 0.244 c -0.151 0.086 -0.294 0.174 -0.436 0.265 c -1.104 0.708 -2.481 0.748 -3.595 0.106 c -0.331 -0.191 -0.714 -0.242 -1.081 -0.143 c -0.368 0.099 -0.675 0.334 -0.866 0.665 l -1.854 3.212 c -0.393 0.681 -0.159 1.554 0.522 1.947 c 1.116 0.644 1.77 1.844 1.707 3.133 c -0.018 0.361 -0.018 0.725 0 1.089 c 0.062 1.287 -0.592 2.485 -1.706 3.128 c -0.33 0.19 -0.566 0.498 -0.665 0.866 c -0.099 0.367 -0.048 0.752 0.143 1.081 l 1.854 3.213 c 0.393 0.68 1.267 0.914 1.947 0.521 C 20.887 56.049 21.477 55.896 22.065 55.896 z M 30 54.015 c -3.868 0 -7.014 -3.146 -7.014 -7.015 c 0 -3.868 3.146 -7.014 7.014 -7.014 s 7.014 3.146 7.014 7.014 C 37.014 50.868 33.868 54.015 30 54.015 z M 30 41.986 c -2.765 0 -5.014 2.25 -5.014 5.014 s 2.25 5.015 5.014 5.015 s 5.014 -2.25 5.014 -5.015 S 32.765 41.986 30 41.986 z" style="stroke: none; stroke-width: 1; stroke-dasharray: none; stroke-linecap: butt; stroke-linejoin: miter; stroke-miterlimit: 10; fill: rgb(0,0,0); fill-rule: nonzero; opacity: 1;" transform=" matrix(1 0 0 1 0 0) " stroke-linecap="round" />
	<path d="M 86.49 78.406 h -9.234 c -0.162 0 -0.322 -0.039 -0.466 -0.115 l -14.957 -7.877 c -2.944 1.456 -6.382 1.424 -9.302 -0.114 c -3.112 -1.639 -5.141 -4.718 -5.428 -8.238 c -0.029 -0.363 0.142 -0.715 0.446 -0.916 c 0.304 -0.201 0.694 -0.22 1.017 -0.05 l 4.52 2.381 c 0.326 0.171 0.697 0.207 1.049 0.097 c 0.351 -0.108 0.639 -0.348 0.81 -0.673 l 2.393 -4.544 c 0.171 -0.325 0.205 -0.697 0.097 -1.049 c -0.108 -0.351 -0.348 -0.639 -0.673 -0.81 l -4.52 -2.38 c -0.323 -0.17 -0.527 -0.502 -0.534 -0.867 c -0.006 -0.364 0.187 -0.704 0.503 -0.886 c 3.065 -1.755 6.753 -1.822 9.862 -0.186 c 2.92 1.538 4.893 4.354 5.358 7.605 l 22.035 11.604 C 89.794 71.562 90 71.902 90 72.273 v 2.623 C 90 76.832 88.426 78.406 86.49 78.406 z M 77.503 76.406 h 8.987 c 0.832 0 1.51 -0.678 1.51 -1.51 v -2.02 L 66.033 61.31 c -0.301 -0.158 -0.5 -0.458 -0.53 -0.796 c -0.251 -2.804 -1.882 -5.258 -4.362 -6.564 c -1.91 -1.007 -4.092 -1.211 -6.112 -0.624 l 2.664 1.403 c 0.798 0.42 1.385 1.126 1.651 1.987 c 0.268 0.861 0.183 1.775 -0.237 2.572 l -2.393 4.544 c -0.42 0.798 -1.126 1.385 -1.987 1.651 c -0.862 0.268 -1.775 0.183 -2.572 -0.237 l -2.664 -1.403 c 0.66 2 2.063 3.682 3.973 4.688 c 2.479 1.305 5.426 1.262 7.88 -0.118 c 0.296 -0.165 0.657 -0.172 0.956 -0.013 L 77.503 76.406 z" style="stroke: none; stroke-width: 1; stroke-dasharray: none; stroke-linecap: butt; stroke-linejoin: miter; stroke-miterlimit: 10; fill: rgb(0,0,0); fill-rule: nonzero; opacity: 1;" transform=" matrix(1 0 0 1 0 0) " stroke-linecap="round" />
</g>
</svg>