<svg xmlns="http://www.w3.org/2000/svg" xmlns:xlink="http://www.w3.org/1999/xlink" version="1.1" width="1000" height="1000" viewBox="0 0 1000 1000" xml:space="preserve">
<desc>Created with Fabric.js 3.5.0</desc>
<defs>
</defs>
<rect x="0" y="0" width="100%" height="100%" fill="rgba(255,255,255,0)"/>
<g transform="matrix(0.75 0 0 0.75 499.9994 499.9987)" id="248529">
<g style="" vector-effect="non-scaling-stroke">
		<g transform="matrix(1 0 0 1 147.1319 -86.07)">
<path style="stroke: none; stroke-width: 1; stroke-dasharray: none; stroke-linecap: butt; stroke-dashoffset: 0; stroke-linejoin: miter; stroke-miterlimit: 4; is-custom-font: none; font-file-url: none; fill: rgb(89,150,54); fill-rule: nonzero; opacity: 1;" transform=" translate(-446.5719, -580.595)" d="M 295.27 3.65 l 35.58 66.83 c 8 12.33 16.67 23.25 26.87 33.42 c 29.79 29.79 58.08 60.99 83.5 94.41 c 60.28 79.16 100.95 167.07 129.98 262.14 c 17.42 58.08 26.87 117.66 27.58 177.9 c 2.91 180.11 -58.83 334.76 -183.31 463.28 c -20.33 20.33 -42.08 39.16 -65.41 55.91 c -12.33 0 -18.17 -9.46 -23.25 -18.16 c -9.45 -15.96 -15.25 -34.17 -18.16 -52.29 c -4.38 -21.8 -7.25 -43.58 -5.83 -66.08 v -10.16 c -1 -2.17 -11.87 -1002.07 -7.54 -1007.19 v 0.01 z" stroke-linecap="round"/>
</g>
		<g transform="matrix(1 0 0 1 -147.771 -81.7154)">
<path style="stroke: none; stroke-width: 1; stroke-dasharray: none; stroke-linecap: butt; stroke-dashoffset: 0; stroke-linejoin: miter; stroke-miterlimit: 4; is-custom-font: none; font-file-url: none; fill: rgb(108,172,72); fill-rule: nonzero; opacity: 1;" transform=" translate(-151.6691, -584.9496)" d="M 295.27 1.43 c -1.46 -2.91 -2.91 -0.71 -4.38 0.71 c 0.71 14.58 -4.38 27.58 -12.33 40 c -8.75 12.33 -20.33 21.8 -31.96 31.96 c -64.57 55.91 -115.4 123.45 -156.11 198.98 C 36.33 374.74 8.41 483.68 0.5 598.38 c -3.62 41.37 13.09 187.36 26.13 229.48 c 35.58 111.82 99.49 205.52 182.27 286.84 c 20.33 19.58 42.08 37.74 64.58 55.2 c 6.54 0 7.25 -5.83 8.74 -10.17 c 2.85 -9.28 5.06 -18.76 6.54 -28.34 l 14.58 -108.9 L 295.26 1.43 z" stroke-linecap="round"/>
</g>
		<g transform="matrix(1 0 0 1 11.81 501.055)">
<path style="stroke: none; stroke-width: 1; stroke-dasharray: none; stroke-linecap: butt; stroke-dashoffset: 0; stroke-linejoin: miter; stroke-miterlimit: 4; is-custom-font: none; font-file-url: none; fill: rgb(194,191,191); fill-rule: nonzero; opacity: 1;" transform=" translate(-311.25, -1167.72)" d="M 330.85 1201.77 c 1.46 -16.67 9.46 -30.5 18.17 -44.29 c -8.75 -3.62 -15.25 -10.83 -20.33 -18.87 c -4.38 -7.25 -8 -15.96 -10.83 -23.96 c -10.17 -30.5 -12.33 -62.5 -15.25 -93.66 v -18.87 c -3.62 2.91 -4.38 27.58 -4.38 31.25 c -2.03 32.85 -6.54 65.8 -13.08 98.05 c -2.17 13.08 -3.62 26.12 -11.67 37.74 c 0 1.46 0 2.91 0.71 5.09 c 13.08 38.5 16.67 77.7 18.87 117.66 v 14.58 c 0 17.41 -0.71 13.74 13.75 19.58 c 5.83 2.17 12.33 2.91 18.16 7.25 c 4.38 0 5.09 -3.62 5.09 -6.54 l -2.17 -23.96 v -66.83 c -0.71 -11.67 1.46 -23.25 2.91 -34.16 l 0.05 -0.06 z" stroke-linecap="round"/>
</g>
</g>
</g>
</svg>